<?xml version="1.0" encoding="UTF-8"?>
<svg version="1.1" xmlns="http://www.w3.org/2000/svg" width="58" height="57">
<path d="M0 0 C19.14 0 38.28 0 58 0 C58 18.81 58 37.62 58 57 C38.86 57 19.72 57 0 57 C0 38.19 0 19.38 0 0 Z " fill="#FDFDFD" transform="translate(0,0)"/>
<path d="M0 0 C7.59 0 15.18 0 23 0 C23 1.98 23 3.96 23 6 C22.34 6 21.68 6 21 6 C21 4.68 21 3.36 21 2 C18.69 2 16.38 2 14 2 C14 9.59 14 17.18 14 25 C14.99 25 15.98 25 17 25 C17 25.99 17 26.98 17 28 C13.7 28 10.4 28 7 28 C7 27.01 7 26.02 7 25 C7.99 25 8.98 25 10 25 C10 17.41 10 9.82 10 2 C7.69 2 5.38 2 3 2 C3 3.32 3 4.64 3 6 C2.01 6 1.02 6 0 6 C0 4.02 0 2.04 0 0 Z " fill="#333841" transform="translate(16,15)"/>
</svg>
